<?xml version="1.0" encoding="UTF-8" ?>
<!DOCTYPE svg PUBLIC "-//W3C//DTD SVG 1.1//EN" "http://www.w3.org/Graphics/SVG/1.1/DTD/svg11.dtd">
<svg width="128pt" height="128pt" viewBox="0 0 128 128" version="1.1" xmlns="http://www.w3.org/2000/svg">
<g id="#ffffffff">
<path fill="#ffffff" opacity="1.00" d=" M 0.00 15.46 C 5.82 11.51 13.31 12.41 19.97 11.94 C 43.31 11.98 66.66 11.55 90.00 12.18 C 93.30 12.35 98.43 12.19 99.92 16.06 C 102.42 22.33 100.97 29.41 101.00 35.96 C 102.73 40.74 97.46 42.34 95.17 44.83 C 94.08 36.24 93.89 27.57 93.19 18.95 C 64.46 19.04 35.73 18.97 7.00 19.01 C 7.00 36.61 6.99 54.22 7.03 71.83 C 11.03 72.13 15.03 72.44 19.02 72.78 C 19.07 78.26 19.12 83.74 19.17 89.22 C 25.07 83.43 30.46 77.00 37.37 72.37 C 41.57 70.74 45.79 73.53 48.35 76.72 C 44.17 78.67 39.36 79.63 35.88 82.82 C 28.56 89.56 21.86 97.10 13.28 102.32 C 12.50 94.78 12.05 87.22 11.55 79.66 C 7.67 78.57 3.76 77.57 0.00 76.11 L 0.00 15.46 Z" />
<path fill="#ffffff" opacity="1.00" d=" M 20.33 31.96 C 40.87 32.44 61.52 30.94 82.00 32.88 C 81.37 34.34 80.11 37.25 79.48 38.70 C 59.45 39.59 39.40 38.83 19.36 38.89 C 19.61 36.57 19.92 34.26 20.33 31.96 Z" />
<path fill="#ffffff" opacity="1.00" d=" M 58.43 49.64 C 71.58 48.31 84.81 48.84 98.00 48.79 C 108.00 49.11 118.34 48.65 128.00 51.67 L 128.00 95.87 C 125.40 97.89 122.52 99.48 119.62 101.02 C 119.27 104.91 118.58 112.70 118.23 116.59 C 110.22 113.25 104.73 106.11 98.62 100.26 C 85.28 99.99 71.89 100.70 58.60 99.30 C 55.82 99.00 53.53 96.65 53.35 93.85 C 52.33 80.75 52.26 67.51 53.60 54.43 C 53.89 51.96 55.95 49.88 58.43 49.64 M 59.95 56.01 C 59.97 68.35 59.92 80.69 60.63 93.02 C 74.33 93.01 88.04 92.95 101.74 93.16 C 105.09 96.51 108.43 99.86 111.80 103.19 C 112.02 99.89 112.22 96.59 112.45 93.30 C 115.31 93.14 118.12 92.99 120.99 92.87 C 121.01 80.58 120.99 68.30 121.00 56.01 C 100.65 55.99 80.30 55.99 59.95 56.01 Z" />
<path fill="#ffffff" opacity="1.00" d=" M 20.31 51.80 C 29.22 52.05 38.30 51.41 47.10 53.20 C 47.07 54.94 47.04 56.68 47.01 58.43 C 37.83 58.86 28.65 58.98 19.46 59.01 C 19.65 56.60 19.92 54.19 20.31 51.80 Z" />
<path fill="#ffffff" opacity="1.00" d=" M 73.02 73.13 C 75.02 71.71 77.48 71.29 79.81 70.76 L 79.81 78.24 C 77.05 77.45 71.74 77.29 73.02 73.13 Z" />
<path fill="#ffffff" opacity="1.00" d=" M 87.02 73.13 C 89.02 71.71 91.48 71.29 93.81 70.76 L 93.81 78.24 C 91.05 77.45 85.74 77.29 87.02 73.13 Z" />
<path fill="#ffffff" opacity="1.00" d=" M 101.02 73.13 C 103.02 71.71 105.48 71.29 107.81 70.76 L 107.81 78.24 C 105.05 77.45 99.74 77.29 101.02 73.13 Z" />
</g>
</svg>
