<?xml version="1.0" encoding="utf-8"?>
<!-- Generator: Adobe Illustrator 21.1.0, SVG Export Plug-In . SVG Version: 6.00 Build 0)  -->
<svg version="1.1" id="Layer_1" xmlns="http://www.w3.org/2000/svg" xmlns:xlink="http://www.w3.org/1999/xlink" x="0px" y="0px"
	 viewBox="0 0 512 512" style="enable-background:new 0 0 512 512;" xml:space="preserve">
<style type="text/css">
	.st0{fill:#FFFFFF;}
</style>
<g id="_x23_000000ff">
	<path class="st0" d="M343.9,55.9c17.6-16.9,41.5-27,65.9-27.5c20.9-0.7,42,5.5,59.2,17.5c2.6,2,6.1,3.7,6.9,7.2
		c1.2,4-1.8,8.6-5.9,9.2c-3.4,0.8-6.3-1.7-8.8-3.5c-20.2-14.6-47.1-19.1-71-12.5c-19.5,5.3-36.9,18-48,34.9
		c-9.2,13.8-14.1,30.3-14,46.8c0,16.7,5.2,33.4,14.6,47.2c9.9,14.6,24.5,26,41.2,31.9c17.3,6.3,36.7,6.6,54.3,1
		c16.4-5.2,31.1-15.7,41.5-29.4c9.8-12.8,15.8-28.5,17-44.6c1.3-16.9-2.6-34.1-11.1-48.7c-2-3-1.7-7.3,1-9.8
		c3.2-3.2,9.1-2.5,11.4,1.4c8.7,14.3,13.3,30.9,14,47.5v7.6c-0.7,9.6-2.3,19.2-5.5,28.3c-8.6,24.8-27.4,45.8-51.1,57
		c-17.4,8.5-37.4,11.3-56.5,8.8c0,56.6,0.1,113.2,0,169.8c0,13.8-11.9,26.3-25.7,27c-13.3,0.3-26.6,0-39.9,0.1
		c-0.1,18,0.2,35.9-0.1,53.9c-0.2,6-8.6,8.9-12.6,4.5c-20.8-19.4-41.5-39-62.4-58.4c-4.7-0.1-9.5,0.2-14.2-0.1c-2.5-0.1-4.9-1.8-6-4
		c-2.1-3.9,0.1-9.4,4.4-10.5c4.2-0.7,8.5-0.2,12.7-0.4c3.9,0.1,8.5-0.8,11.5,2.3c17.3,16.1,34.4,32.3,51.7,48.4c0-14.3,0-28.6,0-43
		c-0.3-4.2,3.4-8,7.7-7.8c15.1-0.1,30.1,0.1,45.2-0.1c4.6,0,9.1-2.6,11.3-6.7c2.1-3.8,1.5-8.3,1.6-12.5c0-55.3,0-110.7,0-166
		c-30-9-54.9-32.9-65.2-62.4c-75.2,0-150.5,0-225.7,0c-3.6,0.3-7.2-2-8-5.5c-1.5-4.9,2.9-10,7.9-9.4c73.9,0,147.9,0,221.8,0
		c-1.8-10.4-2.1-21.1-0.6-31.6C317.1,91.9,327.9,71.1,343.9,55.9z"/>
	<path class="st0" d="M389.5,70.7c8.8-6.8,20.6-9.4,31.4-6.9c11.8,2.6,22,11.3,26.6,22.6c5.7,13.4,2.5,30-7.7,40.4
		c-5.3,5.6-12.3,9.3-19.8,11c-0.1,8.4,0.1,16.8-0.1,25.2c0,3.8-3.3,7.1-7,7.2c-4,0.4-7.9-3.1-7.9-7.2c-0.1-10.7-0.1-21.4,0-32.1
		c-0.1-4.2,3.8-7.6,7.9-7.4c7.8-0.1,15.4-4.5,19.3-11.3c4.4-7.2,4.2-16.9-0.5-23.9c-4.2-6.6-11.9-10.7-19.7-10.4
		c-8,0.1-15.6,4.8-19.4,11.8c-2.2,3.7-2.6,8.1-3,12.3c-0.5,5.2-7.4,8.1-11.5,5c-3-1.9-3.6-5.6-3.2-8.9
		C375.5,87.4,381,77.2,389.5,70.7z"/>
	<path class="st0" d="M0,170.9c1-13.3,12.6-24.9,26-25.4c10.4-0.2,20.7-0.1,31.1-0.1c4.1-0.2,7.7,3.4,7.6,7.5c0.1,4-3.6,7.6-7.6,7.4
		c-10,0.2-20-0.1-30,0.1c-6.9,0.1-12.5,6.6-12,13.4c0,73.7,0,147.4,0,221.2c-0.3,7,5.9,13.2,12.9,13c60.4,0.1,120.8,0,181.2,0.1
		c4.3-0.4,8.4,3.5,8,7.9c-0.1,4.1-4,7.3-8,7.1c-60,0.1-120.1,0-180.1,0c-5.5,0.1-11.2-1.2-15.9-4.2C5.8,414.4,1,406.5,0,398V170.9z"
		/>
	<path class="st0" d="M410.4,179.6c5.2-2,11,3.7,9.1,9c-1.3,5-8.5,6.8-12,2.9C403.6,188,405.4,180.9,410.4,179.6z"/>
	<path class="st0" d="M284,242.9c0.4-3.9,4.1-6.9,8-6.5c17,0,34-0.1,51,0.1c5.4,0,8.9,6.8,5.9,11.3c-15,23.2-30.1,46.3-45.1,69.4
		c13.1,0,26.3,0,39.4,0c2.3-0.1,4.7,0.7,6.2,2.5c2.8,3,2.4,8.1-0.8,10.6c-2,1.9-4.9,1.8-7.4,1.8c-17-0.1-34.1,0.1-51.1-0.1
		c-5.8,0.4-9.9-6.9-6.5-11.6c14.9-23.1,30-46.1,45-69.2c-12.5-0.1-25,0.1-37.5-0.1C286.8,251.3,283.4,247.1,284,242.9z"/>
	<path class="st0" d="M77,240.2c13.5-5.8,29.6-4.8,42.3,2.6c13.1,7.4,22.3,21.4,23.8,36.4c1.4,11.6-1.9,23.5-8.5,33
		c2.9,3.4,7.2,6,8.9,10.3c1.9,5.6-4.4,11.4-9.9,9c-3.8-2-6.3-5.8-9.5-8.6c-9.5,6.9-21.5,10.4-33.2,9.1
		c-15.5-1.4-29.8-10.9-37.3-24.5c-6.6-11.8-7.8-26.4-3.2-39C54.8,255.8,64.8,245.3,77,240.2 M63.2,278.9
		c-2.7,14.7,6.2,30.4,20.1,35.8c9.7,4,21.2,2.9,30.1-2.7c-3.2-3.6-7.3-6.5-9.8-10.6c-2.8-5.7,3.8-12.5,9.6-9.9
		c4.3,2.3,7.1,6.6,10.7,9.7c3.8-6.7,5.6-14.6,4.2-22.2c-2.1-15-15.9-27.2-31.1-27.6C80.9,250.4,65.4,263,63.2,278.9z"/>
	<path class="st0" d="M167.3,237.3c4.8-2.9,11.6,1.2,11.1,6.8c0.1,18.3,0,36.6,0,54.9c-0.5,11.4,12.1,19.4,22.5,18
		c8.7-1,18.5-7.4,18.6-17c0.1-18.7,0-37.4,0.1-56.1c-0.2-4,3.3-7.7,7.3-7.6c4.1-0.2,7.8,3.5,7.6,7.6c0.1,18.3,0,36.7,0,55
		c0.1,7.1-2.2,14.3-6.9,19.8c-8,9.3-20.5,14.5-32.8,13.3c-9.6-0.8-18.5-6.1-24.7-13.3c-4.7-5.4-6.9-12.6-6.8-19.7
		c0-18,0-36.1,0-54.1C163.2,241.9,164.5,238.8,167.3,237.3z"/>
	<path class="st0" d="M256.2,237.3c4.8-2.9,11.5,1.2,11.1,6.8c0.1,26.6,0,53.3,0,79.9c0.5,4.9-4.5,9.4-9.4,8
		c-3.5-0.8-5.9-4.3-5.6-7.9c0-26.4,0-52.7,0-79.1C252.1,242,253.4,238.7,256.2,237.3z"/>
</g>
</svg>
